<svg width="731" height="119" viewBox="0 0 731 119" fill="none" xmlns="http://www.w3.org/2000/svg">
<path d="M33.8004 18.2902C31.8504 22.1102 29.7704 25.4402 29.4804 30.1102C29.0804 36.5002 27.0604 42.7802 24.0104 48.5902C22.5104 51.4402 22.2204 54.4601 21.7904 57.6601C21.2304 61.8501 20.6204 66.7002 18.6204 70.2602C16.7704 73.5702 15.4704 76.0102 16.9504 79.5602C17.1804 80.1102 16.9504 81.1002 16.5604 81.6202C13.9804 85.1502 14.1204 89.0002 14.9204 93.0002C15.2604 94.7002 14.2404 96.0602 13.6104 97.5702C12.7904 99.5402 11.3704 101.5 13.1404 104.06C14.3004 105.75 12.1705 109.64 10.3205 110.46C8.36046 111.33 6.42045 110.21 4.85045 107.42C3.51045 105.03 2.14046 102.7 2.82046 99.7602C2.97046 99.1002 2.95045 98.2602 2.66045 97.6702C0.400452 93.0802 0.150443 88.7102 3.62044 84.5202C4.36044 83.6202 3.65045 82.3802 3.80045 81.3802C4.42045 77.2902 3.88045 72.9402 7.41045 69.5402C8.80045 68.2002 9.65045 65.6501 9.63045 63.6601C9.60045 60.1201 11.0004 56.7402 9.95045 53.0302C8.93045 49.4202 8.63044 45.4302 12.4304 42.6302C13.3004 41.9902 13.0404 40.6202 13.2204 39.5502C13.9204 35.3002 13.9005 30.6602 15.7105 26.9302C17.3205 23.6202 17.5205 20.1802 18.6905 17.0402C20.9005 11.1002 23.3304 4.83016 29.3704 1.24016C30.3704 0.650164 31.3704 0.480169 32.4504 0.370169C37.7804 -0.199831 41.5304 3.25015 45.6704 5.66015C46.3404 6.05015 47.1304 7.41018 46.9204 7.94018C45.1504 12.3502 50.9104 14.8602 49.7004 18.7902C48.7204 21.9702 48.6204 24.5702 50.8904 27.1802C51.3604 27.7302 51.2604 28.9602 51.1104 29.8202C50.7504 32.0002 51.1104 33.7602 53.1904 34.9202C53.6304 35.1602 54.1104 35.6802 54.2004 36.1402C55.1204 40.7502 57.5304 44.0802 61.5404 46.7602C64.0104 48.4102 63.6005 51.7402 62.2705 54.2702C61.2205 56.2702 60.8404 58.4202 62.2904 59.8102C66.5804 63.9402 65.6905 69.4802 66.6305 74.4502C66.9605 76.2002 66.8305 77.8402 68.0505 79.3902C69.6805 81.4602 70.5504 83.8702 69.0904 86.4502C68.7004 87.1502 68.3905 87.8202 68.8505 88.4402C70.4005 90.5502 71.4305 92.7402 70.9605 95.4902C70.8905 95.9202 71.7005 96.7102 72.2705 96.9802C73.0105 97.3302 73.6204 96.8602 73.8404 96.0202C74.2704 94.3802 75.1004 93.0102 76.5304 92.0602C77.1604 91.6502 77.4904 91.1602 77.5804 90.3302C78.1704 84.7802 79.0705 82.0902 82.0105 77.7302C82.7405 76.6502 82.7304 75.7802 82.2804 74.7302C80.5504 70.7602 81.9405 67.5502 85.0705 65.1502C87.0505 63.6302 87.5805 62.4002 86.2205 60.2002C83.7405 56.1902 84.6405 52.2902 86.8805 48.4402C88.0905 46.3602 89.9405 44.3502 88.0405 41.5602C87.3505 40.5502 87.7105 38.8801 88.4205 37.9101C90.4805 35.0801 90.5504 31.4702 92.4004 28.5702C93.5704 26.7302 94.3004 24.7802 92.8004 22.5102C91.5004 20.5202 92.7604 18.7102 94.0504 17.0902C95.9404 14.7202 97.4604 12.5401 97.1804 8.97014C96.8004 4.21014 101.62 1.5402 105.95 3.4602C109.06 4.8402 110.12 7.2402 109.04 10.5302C108.47 12.2802 107.71 14.2502 106.16 15.0302C102.42 16.9002 103.48 19.7302 104.52 22.2802C106.02 25.9502 106.65 29.2402 103.17 32.1102C102.11 32.9802 102.45 33.8902 102.86 35.0002C103.87 37.7002 103.74 40.3101 101.78 42.6601C101.34 43.1901 100.7 44.1202 100.89 44.5302C103.34 49.8202 98.4405 53.7702 98.4105 58.5302C98.3805 63.1702 94.6304 66.9602 95.6204 71.8102C95.7504 72.4402 95.4704 73.3502 95.0504 73.8602C92.3504 77.1302 92.4905 81.6502 90.0705 85.0402C89.5605 85.7602 88.8104 86.8402 89.0204 87.4602C90.3904 91.3202 86.7905 94.6302 88.0005 98.5002C88.5005 100.11 87.4104 101.83 86.1204 102.8C83.7904 104.55 82.9105 106.98 82.0105 109.54C81.4105 111.23 80.4905 112.81 79.7305 114.45C78.5905 116.89 76.8505 118.97 74.0805 118.88C70.9305 118.77 67.7704 117.48 66.4304 114.46C65.2804 111.88 63.8304 109.76 61.8104 107.89C61.2904 107.41 60.5804 106.7 60.6104 106.13C60.8604 101.21 56.9104 97.4602 57.1604 92.3802C57.3404 88.5902 57.3204 84.4502 54.8604 80.9902C54.4604 80.4302 54.2304 79.6502 54.1704 78.9502C53.7204 73.6702 52.6304 68.8002 47.9804 65.3402C46.0304 63.8902 46.5405 61.3102 46.6305 59.1902C46.7605 56.2502 46.9005 53.4902 44.8805 50.9202C44.0805 49.9002 44.1404 48.1702 43.9004 46.7502C43.3304 43.4202 42.7104 40.3402 40.7904 37.2102C39.2304 34.6602 37.7504 31.6702 36.6404 28.6902C36.2504 27.6602 35.8105 26.6402 36.3505 25.5602C37.8905 22.4702 36.1905 20.4402 33.8205 18.2702L33.8004 18.2902Z" fill="#2A211A"/>
<path d="M593.74 28.0605C593.9 30.5905 593.54 34.2805 597.23 36.6305C597.86 37.0305 598.26 38.1605 598.35 39.0005C598.98 44.8305 600.91 50.1005 604.57 54.7305C605.74 56.2105 606.27 58.1705 605.9 59.8805C605.32 62.5705 605.96 64.9205 607.19 67.0805C610.22 72.3805 610.55 78.7305 613.72 83.8705C615.66 87.0205 616.71 90.6305 619.23 93.5105C622.04 96.7305 621.93 99.1105 619.21 102.62C618.25 103.86 618.03 105.17 617.68 106.57C617.15 108.67 615.74 110.31 613.5 110.17C611.23 110.03 609.08 108.66 608.8 106.33C608.33 102.44 604.84 99.3804 606.11 94.9704C606.45 93.7904 605.48 91.8705 603.75 91.0205C599.41 88.8905 598.38 84.7605 598.66 80.5905C598.82 78.2005 597.2 77.0104 596.8 75.1604C596.2 72.3604 594.03 73.5905 592.43 73.3205C590.01 72.9005 587.71 71.8405 585.11 72.8605C583.97 73.3105 582.59 72.6705 581.7 71.6205C576.56 65.4805 569.97 67.1205 564 69.1405C560.13 70.4505 557.03 70.7805 553.89 68.3905C550.72 65.9805 547.39 66.6805 544.08 67.6105C539.83 68.8105 539.83 72.9405 539.58 76.0305C539.27 79.8405 538.07 82.7405 536.02 85.9405C533.47 89.9105 531.61 94.4404 532.93 99.6604C533.93 103.59 531.13 107.07 527.15 107.67C526.79 107.72 526.41 107.81 526.07 107.73C522.39 106.83 521.07 103.63 519.93 100.68C518.98 98.2105 519.58 95.6705 522.27 94.1305C523.83 93.2405 526.39 92.0905 525.95 90.5605C525.1 87.6405 527.65 84.8305 525.76 82.1305C523.49 78.8905 524.94 76.3305 527.28 73.9905C528.43 72.8405 529.9 71.9905 530.94 70.7605C533.34 67.9305 535.19 64.6304 534.36 60.8504C533.64 57.5504 535.7 55.4705 536.51 52.8205C537.23 50.4805 535 47.6305 536.42 44.9805C537.37 43.1905 537.78 41.3105 538.25 39.3605C538.91 36.6305 539.59 33.5905 543.22 33.0105C544.69 32.7705 544.99 31.4305 544.52 30.5305C541.55 24.8205 545.91 21.6305 549.03 18.4905C550.9 16.6105 553 15.4805 552.2 12.3905C551.97 11.5005 552.43 10.5805 553.07 9.9005C556.26 6.5505 560.27 4.2405 564.67 3.4605C568.4 2.8005 572.3 3.91046 575.14 6.86046C576.58 8.35046 578.5 8.82048 580.07 9.82048C585.17 13.0805 590.4 16.4305 593.21 22.2005C593.96 23.7305 593.84 25.3805 593.73 28.0505L593.74 28.0605ZM565.39 18.6405C566.13 22.2205 564.5 24.7705 561.36 26.5005C560.25 27.1105 559.02 27.6405 559.07 29.2105C559.15 31.5405 557.67 33.2705 556.81 35.2405C555.73 37.7005 553.67 40.2005 553.77 42.6105C553.96 47.1005 552.52 50.4505 548.9 53.3705C550.34 53.7405 551.2 54.1004 552.08 54.1604C555.76 54.4104 559.73 53.4005 562.53 57.0305C562.96 57.5905 563.89 56.9805 564.58 56.9605C570.83 56.7605 577.25 53.8505 583.26 58.0305C583.51 58.2005 584.03 58.2504 584.3 58.1004C586.6 56.8704 588.89 58.2904 591.26 58.1004C592.4 54.5904 590.89 51.4905 588.94 49.0405C586.9 46.4705 585.33 44.1305 585.94 40.7605C586.12 39.7605 585.59 38.9905 584.71 38.5705C583.09 37.7905 582.56 36.2105 581.8 34.7805C579.51 30.4505 578.59 25.1805 573.52 22.7405C573.25 22.6105 573.11 22.1505 572.98 21.8205C571.63 18.3005 569.14 17.3505 565.39 18.6305V18.6405Z" fill="#2A211A"/>
<path d="M105.71 103.54C105.91 102.25 106.11 100.34 107.32 98.9502C109.97 95.9102 111.69 92.4701 112.85 88.6101C113.57 86.2101 114.87 83.9901 117.36 82.7201C118.83 81.9701 119.73 80.6902 120.27 79.0002C120.81 77.3102 121.51 75.3102 122.81 74.2802C126.38 71.4602 126.05 67.6002 126.21 63.8702C126.35 60.4702 127.61 57.6902 130.74 56.4402C136.41 54.1802 139.22 49.3101 141.41 44.3601C143 40.7401 145.17 37.4202 146.52 33.7002C146.7 33.2102 147.03 32.4702 147.39 32.3902C153.48 31.2002 155.25 24.8301 160.01 21.9701C163.08 20.1201 165.95 19.3102 169.6 19.5902C174.38 19.9602 178.67 21.4301 183.12 22.9701C187.38 24.4401 189.46 27.0202 189.6 31.2002C189.66 33.0702 190.21 33.9402 191.76 35.0102C195.34 37.4602 197.35 40.4002 196.09 45.5102C195.15 49.3002 196.02 53.4801 199.01 57.1001C202.49 61.3201 205.18 66.2602 202.43 72.1302C201.93 73.2102 202.51 73.7602 203.25 74.3702C208.5 78.6302 207.92 84.5902 207.36 90.2402C207.08 93.0902 206.73 95.2701 208.96 97.6101C211.31 100.07 210.77 106.28 208.39 108.71C207.67 109.45 206.61 110.01 205.6 110.29C201.6 111.4 195.46 105.44 196.32 101.38C197.49 95.8702 195.36 91.6802 190.39 89.6202C189.39 89.2102 188.47 88.6101 187.54 88.0501C185.42 86.7701 183.46 86.0202 181.08 87.8402C178.88 89.5202 176.32 89.5802 174.09 87.6302C172.73 86.4302 171.57 86.0902 169.73 86.9502C166.57 88.4202 163.36 87.6602 160.3 86.2102C157.5 84.8802 154.87 83.8202 151.79 86.0302C150.06 87.2702 147.64 87.2002 145.56 86.0702C142.92 84.6402 140.38 85.0201 137.76 86.2201C136.3 86.8901 134.77 87.6401 133.06 87.1001C131.22 86.5201 129.79 84.8702 127.71 87.6802C126.36 89.5002 125.06 90.7502 125.39 93.1302C125.57 94.4002 125.16 95.6202 124.38 96.7102C121.78 100.36 119.29 104.09 116.6 107.67C114.95 109.86 111.88 110.47 109.19 109.51C106.6 108.58 105.59 106.66 105.7 103.52L105.71 103.54ZM192.52 76.4602C190.59 74.3102 192.33 71.0402 190.36 69.2502C187.15 66.3302 187.48 62.9101 188.14 59.2301C188.48 57.3001 189.24 54.9901 187.69 53.4801C183.73 49.6501 182.2 44.7002 180.45 39.7502C179.29 36.4702 174.19 32.9902 171.14 33.2702C167.13 33.6402 163.76 36.1901 159.81 36.9201C159.01 37.0701 158.96 38.0001 158.71 38.6601C156.88 43.3801 152.4 46.3802 150.59 51.1402C150.37 51.7202 149.56 52.3602 148.95 52.4402C146.55 52.7802 145.89 54.0102 146.61 56.2102C147.37 58.5102 146.26 60.7302 144.51 61.2702C139.82 62.7102 138.98 67.6602 135.55 70.1402C134.52 70.8802 134.46 72.1201 135.52 72.9101C138.36 75.0301 142.05 74.6301 145.18 75.9701C148.37 72.5101 152.57 72.5101 156.79 72.5501C156.94 72.5501 157.1 72.3702 157.26 72.2802C160.21 70.6602 162.96 70.8202 165.96 72.5302C168.65 74.0702 171.43 76.1301 174.97 74.4101C175.68 74.0701 176.93 74.1602 177.62 74.5702C182.19 77.3102 187.24 75.9802 192.53 76.4402L192.52 76.4602Z" fill="#2A211A"/>
<path d="M394.67 19.8598C401.05 20.1698 402.83 22.1699 402.13 28.6399C401.93 30.4899 401.96 31.7799 404.19 32.2599C406.5 32.7599 407.58 34.8698 408.92 36.5498C409.89 37.7598 410.33 39.3598 409.37 40.5998C406.9 43.7798 409.3 45.0698 411.41 46.5398C415.84 49.6198 417.33 53.4698 415.9 58.6698C415.03 61.8298 414.96 64.9498 415.6 68.1598C416.09 70.6298 416.92 72.3599 419.64 73.2799C422.4 74.2199 422.9 76.6698 420.66 78.7398C418.33 80.8998 419.01 82.3699 420.14 84.7799C421.9 88.5299 422.97 92.6498 422.63 96.8798C422.44 99.2398 421.78 101.82 418.98 102.34C416.34 102.83 414.62 101.32 413.54 98.8498C412.98 97.5498 412 96.3699 411.01 95.3299C407.99 92.1499 405.59 88.8999 407.84 84.2099C408.44 82.9499 407.36 81.8198 407.11 80.6098C406.7 78.6398 405.18 78.3198 403.89 79.4998C400.77 82.3498 397.65 82.9698 394.09 80.4398C393.71 80.1698 392.94 80.0699 392.55 80.2699C388.17 82.5299 384 80.6398 379.85 79.5598C377.66 78.9898 375.65 78.3999 373.76 80.1499C373.5 80.3899 373.11 80.6799 372.81 80.6499C366.68 79.8799 366.47 85.4498 364.22 88.7498C363.49 89.8298 363.93 91.1399 364.39 92.3999C365.52 95.5299 365.13 98.4998 362.69 100.93C361.7 101.92 361.42 102.99 361.44 104.35C361.47 106.41 360.53 107.88 358.3 108.04C356.4 108.17 355.63 107.03 354.8 105.35C353.12 101.95 352.48 98.9198 353.89 95.0698C355.55 90.5498 356.7 85.6898 355.82 80.7198C355.46 78.7198 357.2 77.4098 357.16 75.5498C357.07 71.5698 362.16 70.2698 361.76 65.5698C361.44 61.8398 364.89 58.9398 368.18 56.8598C369.3 56.1498 369.45 55.1998 369.24 54.0598C368.77 51.5898 369.5 49.2698 370.66 47.2498C374.08 41.3098 375.78 34.6498 378.75 28.5498C380.08 25.8098 382 23.2498 385.37 22.6098C388.53 22.0098 391 19.1398 394.67 19.8798V19.8598ZM405.45 59.7398C405.21 59.3298 405.09 58.9599 404.84 58.7099C401.19 55.0299 403.39 49.1498 399.84 45.4398C400.73 42.9498 399.43 41.0598 397.68 39.8098C395.38 38.1598 393.87 36.2798 392.92 33.5598C391.98 30.8598 390.11 30.7698 388.97 33.3498C386.39 39.1898 380.07 43.0898 380.19 50.3598C380.2 51.2998 379.41 52.4298 378.69 53.1798C375.22 56.7598 376.34 61.9098 374.21 65.9398C373.76 66.7998 374.06 67.6298 375.04 68.1798C375.92 68.6798 376.63 68.8199 377.42 68.0199C378.45 66.9699 379.7 65.7598 381.13 65.9998C385.7 66.7498 390.53 66.5899 394.54 69.5299C397.92 72.0099 401.4 70.8298 402.44 66.9798C402.99 64.9398 402.94 62.6198 404.84 61.0698C405.2 60.7798 405.28 60.1498 405.47 59.7398H405.45Z" fill="#2A211A"/>
<path d="M246.71 36.0705C246.71 39.4605 246.48 42.8304 246.76 46.1704C247.29 52.5104 246.02 58.6005 244.66 64.7005C244.58 65.0505 244.31 65.3505 244.24 65.7005C243.89 67.6305 240.48 69.6205 242.04 70.6305C244.47 72.2005 247.46 73.9004 251.03 72.9304C254.65 71.9404 258.26 70.8305 262.1 70.6505C264.46 70.5305 266.08 70.9605 266.64 73.3305C267.17 75.5305 266.64 77.3505 264.11 77.8905C262.82 78.1705 261.69 78.5504 260.99 79.7904C258.89 83.5204 255.53 83.4704 251.98 82.7304C250.41 82.4004 248.82 81.6004 247.3 81.7204C242.46 82.1004 240.03 85.6505 242.25 90.0305C244.34 94.1505 243.53 97.2504 240.87 100.56C243.12 104.19 247.37 103.27 250.39 104.95C252.86 106.32 255.94 106.57 258.47 107.86C262.47 109.89 262.63 112.36 259.4 115.41C256.1 118.53 254.26 118.94 250.22 116.51C248.18 115.29 246.29 115 244.06 115.19C235.64 115.9 234.22 114.96 231.08 106.79C230.64 105.66 229.62 105.25 228.87 104.49C226.35 101.96 225.43 99.3905 227.48 96.7105C230.55 92.7005 229.11 88.4105 229.39 84.2605C229.65 80.3805 229.58 76.5005 231.5 72.9605C232.67 70.8005 231.8 68.7305 230.91 66.8805C228.87 62.6305 228.63 58.8804 232.93 55.8704C234.35 54.8804 234.58 53.4905 233.94 52.0305C231.89 47.3905 233.94 42.7705 233.97 38.1505C233.97 36.8405 234.82 35.7405 235.7 34.8405C236.89 33.6205 237.61 32.5904 236.98 30.6204C236.04 27.7104 238.16 25.9504 240.28 24.4104C242.41 22.8604 244.65 22.4505 246.74 24.2705C248.29 25.6205 249.91 25.8405 251.76 25.4005C255.04 24.6005 258.25 25.6604 261.48 25.8704C264.65 26.0804 266.84 28.5904 266.72 31.1004C266.61 33.5104 263.3 36.7204 260.53 36.0504C257.64 35.3604 255.35 36.3405 252.76 36.7605C250.9 37.0605 248.88 36.3605 246.73 36.0805L246.71 36.0705Z" fill="#2A211A"/>
<path d="M293.64 89.2197C293.55 87.7697 293.41 85.9997 293.78 84.1697C294.28 81.6697 294.26 79.1997 292.74 76.8497C291.36 74.7197 291.46 72.3298 292.64 70.0898C294.05 67.4398 294.72 64.6997 294.08 61.7297C293.75 60.2097 294.39 58.8898 294.79 57.4998C296.12 52.9098 295.14 48.4497 293.73 44.1097C293.13 42.2697 292.55 40.6298 293.96 39.0598C295.76 37.0598 295.7 34.9998 295.75 32.3298C295.83 28.5498 295.21 24.8497 295.33 21.1597C295.45 17.1297 295.34 13.2897 294.04 9.47974C293.2 7.00974 293.99 4.74976 295.43 2.81976C297.6 -0.0902382 301.27 0.439784 302.72 3.77978C304.1 6.96978 305.68 9.87977 305.31 13.8298C305.07 16.3198 306.5 19.5197 306.75 22.2197C307.24 27.4897 308.98 33.1197 305.58 38.1697C305 39.0297 304.87 39.8098 305.3 40.6898C306.07 42.2698 306.1 43.7797 305.2 45.3497C304.52 46.5497 304.67 47.9697 305.4 48.9897C307.11 51.3997 307.58 53.8698 306.71 56.6998C306.37 57.7998 306.95 58.8497 307.73 59.6597C310.84 62.8597 309.91 66.2498 308.16 69.6298C307.6 70.7098 306.22 71.5098 306.79 72.9498C308.79 77.9998 305.7 82.8098 306.15 87.7698C306.18 88.1198 306.08 88.4897 306.01 88.8497C305.17 93.3497 305.26 92.7798 309.53 93.5198C313.3 94.1698 317.48 91.7298 320.94 95.0598C321.34 95.4498 322.91 94.4797 323.97 94.3497C326.68 93.9997 329.19 95.5297 330 97.9297C330.9 100.57 330.19 103.13 328.01 104.7C327.14 105.32 326.09 106.11 325.13 106.11C321.33 106.11 317.58 107.44 313.93 107.23C310.6 107.04 307.22 106.49 303.83 106.24C299.64 105.93 298.39 101.9 296.09 99.3698C293.68 96.7098 293.64 93.0497 293.66 89.2197H293.64Z" fill="#2A211A"/>
<path d="M646.751 22.8399C645.241 25.3799 646.871 27.4499 648.481 29.7599C650.141 32.1299 650.441 34.9799 648.271 37.2599C646.451 39.1699 646.371 40.3299 648.631 41.9399C652.321 44.5699 652.121 48.5099 651.041 52.2499C650.471 54.2299 650.281 55.4898 651.991 56.9898C653.351 58.1898 653.551 60.1499 653.681 62.0099C654.021 66.6699 655.401 71.2199 654.741 76.0199C654.401 78.5099 658.131 81.1599 660.391 79.9599C664.211 77.9399 668.651 80.5699 672.301 77.8699C673.051 77.3099 674.431 77.8999 675.321 78.6299C676.791 79.8299 678.391 80.1098 680.321 80.1098C682.981 80.1098 684.751 82.0399 684.441 84.1299C684.081 86.5299 682.521 88.3899 680.121 88.0699C678.191 87.8099 677.081 88.5798 675.701 89.4098C674.791 89.9598 673.611 90.6699 672.691 90.4999C666.871 89.4099 661.391 92.0599 655.651 91.8999C653.741 91.8499 652.191 91.5299 650.571 90.5599C646.841 88.3299 645.041 84.1398 641.421 81.7898C640.591 81.2498 640.671 79.8699 640.531 78.7699C640.031 74.8299 639.321 70.9198 638.761 66.9898C638.471 64.9698 637.721 63.2699 636.431 61.6399C634.361 58.9999 634.351 55.9499 635.471 52.8799C635.961 51.5299 636.521 50.1998 637.031 48.8498C638.611 44.6598 639.811 40.6698 635.501 37.0498C633.831 35.6498 633.611 33.1699 634.531 30.9499C635.551 28.4799 635.391 26.1099 634.511 23.5899C633.741 21.3799 633.171 18.9699 635.511 17.1299C637.351 15.6799 639.631 14.8399 641.571 16.0199C643.931 17.4499 646.771 18.9198 646.731 22.8498L646.751 22.8399Z" fill="#2A211A"/>
<path d="M715.55 65.1805C716.97 67.6205 717.63 70.2305 719.44 72.4105C721.1 74.4205 721.01 77.1905 720 79.6805C719.26 81.5105 719.69 83.0105 720.33 84.8105C721.82 89.0505 722.61 93.4905 722.38 98.0305C722.18 102.121 716.72 106.19 712.67 105.41C711.29 105.14 710.36 104.281 709.87 103.071C708.16 98.8905 706.53 94.6805 705.51 90.2605C705.35 89.5805 705.37 88.8205 705.51 88.1305C705.94 86.0105 707.32 84.2205 707.96 82.3305C708.51 80.7305 706.13 78.6005 706.8 76.2805C707.58 73.5805 707.06 70.9405 706.56 68.2405C705.47 62.3705 707.64 57.1605 710.58 52.3105C711.97 50.0205 714.69 49.9705 716.68 51.8105C717.6 52.6605 718.35 53.7105 719.12 54.7205C722.02 58.4905 721.52 61.5805 717.56 64.3005C716.99 64.6905 716.28 64.8705 715.57 65.1705L715.55 65.1805Z" fill="#2A211A"/>
<path d="M718.191 33.2902C714.751 33.3702 710.051 28.5602 710.301 25.1602C710.341 24.6402 710.431 23.9403 710.771 23.6503C712.271 22.3803 713.921 21.2803 715.431 20.0103C717.031 18.6703 718.651 18.5003 720.401 19.5703C721.281 20.1103 722.071 19.7303 722.961 19.5703C726.601 18.9203 729.001 20.3603 729.891 23.5803C730.541 25.9203 729.361 28.0802 726.211 29.3502C724.671 29.9702 723.361 30.6602 722.141 31.7902C721.091 32.7702 719.711 33.3603 718.181 33.2803L718.191 33.2902Z" fill="#2A211A"/>
<path d="M565.39 18.6399C569.13 17.3599 571.63 18.3099 572.98 21.8299C573.11 22.1599 573.25 22.6199 573.52 22.7499C578.58 25.1899 579.51 30.4599 581.8 34.7899C582.56 36.2199 583.08 37.7999 584.71 38.5799C585.59 38.9999 586.12 39.7699 585.94 40.7699C585.33 44.1399 586.9 46.4799 588.94 49.0499C590.88 51.4999 592.4 54.5999 591.26 58.1099C588.89 58.2999 586.6 56.8799 584.3 58.1099C584.03 58.2499 583.51 58.2099 583.26 58.0399C577.25 53.8599 570.83 56.7699 564.58 56.9699C563.89 56.9899 562.96 57.5999 562.53 57.0399C559.74 53.4099 555.76 54.4199 552.08 54.1699C551.2 54.1099 550.35 53.7499 548.9 53.3799C552.52 50.4699 553.96 47.1099 553.77 42.6199C553.67 40.2099 555.74 37.7099 556.81 35.2499C557.67 33.2799 559.15 31.5499 559.07 29.2199C559.02 27.6499 560.26 27.1199 561.36 26.5099C564.49 24.7699 566.13 22.2299 565.39 18.6499V18.6399Z" fill="#FBFBFA"/>
<path d="M192.52 76.4603C187.23 76.0003 182.17 77.3403 177.61 74.5903C176.92 74.1803 175.67 74.0903 174.96 74.4303C171.42 76.1503 168.64 74.0903 165.95 72.5503C162.95 70.8303 160.2 70.6803 157.25 72.3003C157.09 72.3903 156.94 72.5703 156.78 72.5703C152.56 72.5303 148.36 72.5303 145.17 75.9903C142.05 74.6603 138.36 75.0603 135.51 72.9303C134.44 72.1403 134.51 70.9003 135.54 70.1603C138.97 67.6803 139.81 62.7303 144.5 61.2903C146.25 60.7503 147.35 58.5203 146.6 56.2303C145.87 54.0303 146.54 52.8003 148.94 52.4603C149.55 52.3703 150.36 51.7303 150.58 51.1603C152.38 46.4003 156.87 43.4003 158.7 38.6803C158.96 38.0103 159 37.0803 159.8 36.9403C163.74 36.2103 167.11 33.6603 171.13 33.2903C174.18 33.0103 179.28 36.4903 180.44 39.7703C182.19 44.7203 183.72 49.6703 187.68 53.5003C189.23 55.0003 188.47 57.3203 188.13 59.2503C187.47 62.9303 187.14 66.3503 190.35 69.2703C192.32 71.0603 190.58 74.3303 192.51 76.4803L192.52 76.4603Z" fill="#FBFBFA"/>
<path d="M405.451 59.7405C405.271 60.1505 405.181 60.7805 404.821 61.0705C402.921 62.6105 402.981 64.9305 402.421 66.9805C401.381 70.8205 397.901 72.0105 394.521 69.5305C390.511 66.5905 385.681 66.7505 381.111 66.0005C379.681 65.7705 378.431 66.9805 377.401 68.0205C376.621 68.8205 375.911 68.6805 375.021 68.1805C374.051 67.6305 373.741 66.8005 374.191 65.9405C376.331 61.9105 375.211 56.7605 378.671 53.1805C379.391 52.4305 380.191 51.3005 380.171 50.3605C380.061 43.0905 386.371 39.2005 388.951 33.3505C390.091 30.7705 391.971 30.8705 392.901 33.5605C393.851 36.2805 395.361 38.1605 397.661 39.8105C399.401 41.0605 400.711 42.9505 399.821 45.4405C403.371 49.1505 401.161 55.0305 404.821 58.7105C405.071 58.9605 405.191 59.3305 405.431 59.7405H405.451Z" fill="#FBFBFA"/>
</svg>
